<mxfile host="app.diagrams.net" modified="2020-08-13T14:33:05.645Z" agent="5.0 (Windows NT 10.0; Win64; x64) AppleWebKit/537.36 (KHTML, like Gecko) Chrome/83.0.4103.61 Safari/537.36" etag="vTNFwtATWiyOZTaBnQ5v" version="13.6.2" type="github">
  <diagram name="Page-1" id="6133507b-19e7-1e82-6fc7-422aa6c4b21f">
    <mxGraphModel dx="898" dy="482" grid="1" gridSize="10" guides="1" tooltips="1" connect="1" arrows="1" fold="1" page="1" pageScale="1" pageWidth="1100" pageHeight="850" background="#ffffff" math="0" shadow="0">
      <root>
        <mxCell id="0" />
        <mxCell id="1" parent="0" />
        <mxCell id="78961159f06e98e8-17" value="usuario" style="swimlane;html=1;fontStyle=1;align=center;verticalAlign=top;childLayout=stackLayout;horizontal=1;startSize=26;horizontalStack=0;resizeParent=1;resizeLast=0;collapsible=1;marginBottom=0;swimlaneFillColor=#ffffff;rounded=0;shadow=0;comic=0;labelBackgroundColor=none;strokeWidth=1;fillColor=#f5f5f5;fontFamily=Verdana;fontSize=12;strokeColor=#666666;gradientColor=#b3b3b3;" parent="1" vertex="1">
          <mxGeometry x="40" y="120" width="160" height="170" as="geometry" />
        </mxCell>
        <mxCell id="78961159f06e98e8-23" value="&lt;b&gt;+ Id_usuario&lt;br&gt;+ id_direccion&lt;br&gt;+id_articulo-puntuacion&lt;br&gt;+ id_articulo-comentarios&lt;br&gt;+ id_carritoCompra&lt;br&gt;+ &lt;/b&gt;nombre&lt;br&gt;+ apellido&lt;br&gt;&lt;br&gt;" style="text;html=1;strokeColor=none;fillColor=none;align=left;verticalAlign=top;spacingLeft=4;spacingRight=4;whiteSpace=wrap;overflow=hidden;rotatable=0;points=[[0,0.5],[1,0.5]];portConstraint=eastwest;" parent="78961159f06e98e8-17" vertex="1">
          <mxGeometry y="26" width="160" height="144" as="geometry" />
        </mxCell>
        <mxCell id="78961159f06e98e8-95" value="Referencias" style="swimlane;html=1;fontStyle=1;align=center;verticalAlign=top;childLayout=stackLayout;horizontal=1;startSize=26;horizontalStack=0;resizeParent=1;resizeLast=0;collapsible=1;marginBottom=0;swimlaneFillColor=#ffffff;rounded=0;shadow=0;comic=0;labelBackgroundColor=none;strokeWidth=1;fillColor=#dae8fc;fontFamily=Verdana;fontSize=12;gradientColor=#7ea6e0;strokeColor=#6c8ebf;" parent="1" vertex="1">
          <mxGeometry x="880" y="43" width="200" height="340" as="geometry" />
        </mxCell>
        <mxCell id="78961159f06e98e8-103" value="" style="line;html=1;strokeWidth=1;fillColor=none;align=left;verticalAlign=middle;spacingTop=-1;spacingLeft=3;spacingRight=3;rotatable=0;labelPosition=right;points=[];portConstraint=eastwest;" parent="78961159f06e98e8-95" vertex="1">
          <mxGeometry y="26" width="200" height="8" as="geometry" />
        </mxCell>
        <mxCell id="fnQmAsNqWZoXR3f6Luwj-44" value="&lt;b style=&quot;color: rgb(0 , 0 , 0) ; font-family: &amp;#34;helvetica&amp;#34; ; font-size: 12px ; font-style: normal ; letter-spacing: normal ; text-indent: 0px ; text-transform: none ; word-spacing: 0px ; background-color: rgb(248 , 249 , 250)&quot;&gt;&amp;nbsp; &amp;nbsp; 1 mandatory to many optional&lt;br&gt;&lt;br&gt;&lt;br&gt;&lt;br&gt;&lt;br&gt;&lt;div style=&quot;text-align: center&quot;&gt;&lt;b&gt;1 to 1&lt;/b&gt;&lt;/div&gt;&lt;div style=&quot;text-align: center&quot;&gt;&lt;b&gt;&lt;br&gt;&lt;/b&gt;&lt;/div&gt;&lt;div style=&quot;text-align: center&quot;&gt;&lt;b&gt;&lt;br&gt;&lt;/b&gt;&lt;/div&gt;&lt;div style=&quot;text-align: center&quot;&gt;&lt;b&gt;&lt;br&gt;&lt;/b&gt;&lt;/div&gt;&lt;div style=&quot;text-align: center&quot;&gt;&lt;b&gt;&lt;br&gt;&lt;/b&gt;&lt;/div&gt;&lt;div style=&quot;text-align: center&quot;&gt;&lt;b&gt;&amp;nbsp; Many optional to many optional&lt;/b&gt;&lt;/div&gt;&lt;div style=&quot;text-align: center&quot;&gt;&lt;b&gt;&lt;br&gt;&lt;/b&gt;&lt;/div&gt;&lt;div style=&quot;text-align: center&quot;&gt;&lt;b&gt;&lt;br&gt;&lt;/b&gt;&lt;/div&gt;&lt;div style=&quot;text-align: center&quot;&gt;&lt;b&gt;&lt;br&gt;&lt;/b&gt;&lt;/div&gt;&lt;div style=&quot;text-align: center&quot;&gt;&lt;b&gt;&lt;br&gt;&lt;/b&gt;&lt;/div&gt;&lt;div style=&quot;text-align: center&quot;&gt;&lt;b&gt;Optional participation&lt;/b&gt;&lt;/div&gt;&lt;/b&gt;" style="text;whiteSpace=wrap;html=1;" vertex="1" parent="78961159f06e98e8-95">
          <mxGeometry y="34" width="200" height="306" as="geometry" />
        </mxCell>
        <mxCell id="fnQmAsNqWZoXR3f6Luwj-35" value="" style="edgeStyle=entityRelationEdgeStyle;fontSize=12;html=1;endArrow=ERzeroToMany;startArrow=ERmandOne;strokeColor=#0000FF;strokeWidth=3;" edge="1" parent="78961159f06e98e8-95">
          <mxGeometry width="100" height="100" relative="1" as="geometry">
            <mxPoint x="22.5" y="67" as="sourcePoint" />
            <mxPoint x="177.5" y="67" as="targetPoint" />
          </mxGeometry>
        </mxCell>
        <mxCell id="fnQmAsNqWZoXR3f6Luwj-37" value="" style="edgeStyle=entityRelationEdgeStyle;fontSize=12;html=1;endArrow=ERmandOne;startArrow=ERmandOne;strokeColor=#0000FF;strokeWidth=3;" edge="1" parent="78961159f06e98e8-95">
          <mxGeometry width="100" height="100" relative="1" as="geometry">
            <mxPoint x="20" y="137" as="sourcePoint" />
            <mxPoint x="180" y="137" as="targetPoint" />
          </mxGeometry>
        </mxCell>
        <mxCell id="fnQmAsNqWZoXR3f6Luwj-41" value="" style="edgeStyle=entityRelationEdgeStyle;fontSize=12;html=1;endArrow=ERzeroToMany;endFill=1;startArrow=ERzeroToMany;strokeColor=#0000FF;strokeWidth=3;" edge="1" parent="78961159f06e98e8-95">
          <mxGeometry width="100" height="100" relative="1" as="geometry">
            <mxPoint x="22.5" y="207" as="sourcePoint" />
            <mxPoint x="177.5" y="207" as="targetPoint" />
          </mxGeometry>
        </mxCell>
        <mxCell id="fnQmAsNqWZoXR3f6Luwj-38" value="" style="endArrow=none;html=1;rounded=0;dashed=1;dashPattern=1 2;strokeColor=#0000FF;strokeWidth=3;" edge="1" parent="78961159f06e98e8-95">
          <mxGeometry relative="1" as="geometry">
            <mxPoint x="20" y="277" as="sourcePoint" />
            <mxPoint x="180" y="277" as="targetPoint" />
          </mxGeometry>
        </mxCell>
        <mxCell id="fnQmAsNqWZoXR3f6Luwj-39" value="N" style="resizable=0;html=1;align=right;verticalAlign=bottom;" connectable="0" vertex="1" parent="fnQmAsNqWZoXR3f6Luwj-38">
          <mxGeometry x="1" relative="1" as="geometry" />
        </mxCell>
        <mxCell id="fnQmAsNqWZoXR3f6Luwj-9" value="direccion" style="swimlane;html=1;fontStyle=1;align=center;verticalAlign=top;childLayout=stackLayout;horizontal=1;startSize=26;horizontalStack=0;resizeParent=1;resizeLast=0;collapsible=1;marginBottom=0;swimlaneFillColor=#ffffff;rounded=0;shadow=0;comic=0;labelBackgroundColor=none;strokeWidth=1;fillColor=#f5f5f5;fontFamily=Verdana;fontSize=12;strokeColor=#666666;gradientColor=#b3b3b3;" vertex="1" parent="1">
          <mxGeometry x="40" y="360" width="160" height="120" as="geometry" />
        </mxCell>
        <mxCell id="fnQmAsNqWZoXR3f6Luwj-10" value="&lt;b&gt;+ id_direccion&lt;br&gt;+ Id_usuario&lt;br&gt;+&amp;nbsp; &lt;/b&gt;calle&lt;br&gt;+ nro_puerta&lt;br&gt;+ esquina&lt;br&gt;+ pais" style="text;html=1;strokeColor=none;fillColor=none;align=left;verticalAlign=top;spacingLeft=4;spacingRight=4;whiteSpace=wrap;overflow=hidden;rotatable=0;points=[[0,0.5],[1,0.5]];portConstraint=eastwest;" vertex="1" parent="fnQmAsNqWZoXR3f6Luwj-9">
          <mxGeometry y="26" width="160" height="94" as="geometry" />
        </mxCell>
        <mxCell id="fnQmAsNqWZoXR3f6Luwj-11" value="" style="edgeStyle=entityRelationEdgeStyle;fontSize=12;html=1;endArrow=ERzeroToMany;startArrow=ERmandOne;strokeColor=#0000FF;strokeWidth=3;entryX=-0.022;entryY=0.093;entryDx=0;entryDy=0;entryPerimeter=0;exitX=1;exitY=0.5;exitDx=0;exitDy=0;" edge="1" parent="1" source="78961159f06e98e8-23" target="fnQmAsNqWZoXR3f6Luwj-6">
          <mxGeometry width="100" height="100" relative="1" as="geometry">
            <mxPoint x="200" y="286" as="sourcePoint" />
            <mxPoint x="300" y="186" as="targetPoint" />
          </mxGeometry>
        </mxCell>
        <mxCell id="fnQmAsNqWZoXR3f6Luwj-33" value="realiza" style="edgeLabel;html=1;align=center;verticalAlign=middle;resizable=0;points=[];" vertex="1" connectable="0" parent="fnQmAsNqWZoXR3f6Luwj-11">
          <mxGeometry x="0.1575" y="-1" relative="1" as="geometry">
            <mxPoint as="offset" />
          </mxGeometry>
        </mxCell>
        <mxCell id="fnQmAsNqWZoXR3f6Luwj-12" value="" style="edgeStyle=entityRelationEdgeStyle;fontSize=12;html=1;endArrow=ERzeroToMany;startArrow=ERmandOne;strokeColor=#0000FF;strokeWidth=3;entryX=-0.017;entryY=0.594;entryDx=0;entryDy=0;entryPerimeter=0;" edge="1" parent="1" source="fnQmAsNqWZoXR3f6Luwj-7" target="78961159f06e98e8-44">
          <mxGeometry width="100" height="100" relative="1" as="geometry">
            <mxPoint x="330" y="500" as="sourcePoint" />
            <mxPoint x="330" y="425" as="targetPoint" />
          </mxGeometry>
        </mxCell>
        <mxCell id="fnQmAsNqWZoXR3f6Luwj-7" value="pedido" style="swimlane;html=1;fontStyle=1;align=center;verticalAlign=top;childLayout=stackLayout;horizontal=1;startSize=26;horizontalStack=0;resizeParent=1;resizeLast=0;collapsible=1;marginBottom=0;swimlaneFillColor=#ffffff;rounded=0;shadow=0;comic=0;labelBackgroundColor=none;strokeWidth=1;fillColor=#d5e8d4;fontFamily=Verdana;fontSize=12;strokeColor=#82b366;gradientColor=#97d077;" vertex="1" parent="1">
          <mxGeometry x="320" y="389" width="160" height="162" as="geometry" />
        </mxCell>
        <mxCell id="fnQmAsNqWZoXR3f6Luwj-6" value="&lt;p style=&quot;color: rgb(0 , 0 , 0) ; font-family: &amp;#34;helvetica&amp;#34; ; font-size: 12px ; font-style: normal ; letter-spacing: normal ; text-align: left ; text-indent: 0px ; text-transform: none ; word-spacing: 0px ; background-color: rgb(248 , 249 , 250) ; margin: 0px 0px 0px 4px&quot;&gt;&lt;b&gt;+ id_pedido&lt;/b&gt;&lt;b&gt;&lt;br&gt;&lt;/b&gt;&lt;/p&gt;&lt;p style=&quot;color: rgb(0 , 0 , 0) ; font-family: &amp;#34;helvetica&amp;#34; ; font-size: 12px ; font-style: normal ; letter-spacing: normal ; text-align: left ; text-indent: 0px ; text-transform: none ; word-spacing: 0px ; background-color: rgb(248 , 249 , 250) ; margin: 0px 0px 0px 4px&quot;&gt;&lt;b&gt;+ id_usuario&lt;/b&gt;&lt;/p&gt;&lt;p style=&quot;color: rgb(0 , 0 , 0) ; font-family: &amp;#34;helvetica&amp;#34; ; font-size: 12px ; font-style: normal ; letter-spacing: normal ; text-align: left ; text-indent: 0px ; text-transform: none ; word-spacing: 0px ; background-color: rgb(248 , 249 , 250) ; margin: 0px 0px 0px 4px&quot;&gt;&lt;b&gt;+ id_articulo&lt;/b&gt;&lt;/p&gt;&lt;p style=&quot;color: rgb(0 , 0 , 0) ; font-family: &amp;#34;helvetica&amp;#34; ; font-size: 12px ; font-style: normal ; letter-spacing: normal ; text-align: left ; text-indent: 0px ; text-transform: none ; word-spacing: 0px ; background-color: rgb(248 , 249 , 250) ; margin: 0px 0px 0px 4px&quot;&gt;&lt;b&gt;+ id_tipoenvio&lt;/b&gt;&lt;br&gt;&lt;/p&gt;&lt;p style=&quot;color: rgb(0 , 0 , 0) ; font-family: &amp;#34;helvetica&amp;#34; ; font-size: 12px ; font-style: normal ; letter-spacing: normal ; text-align: left ; text-indent: 0px ; text-transform: none ; word-spacing: 0px ; background-color: rgb(248 , 249 , 250) ; margin: 0px 0px 0px 4px&quot;&gt;&lt;b&gt;+ id_metodoPago&lt;/b&gt;&lt;/p&gt;&lt;p style=&quot;color: rgb(0 , 0 , 0) ; font-family: &amp;#34;helvetica&amp;#34; ; font-size: 12px ; font-style: normal ; letter-spacing: normal ; text-align: left ; text-indent: 0px ; text-transform: none ; word-spacing: 0px ; background-color: rgb(248 , 249 , 250) ; margin: 0px 0px 0px 4px&quot;&gt;&lt;b&gt;+&lt;/b&gt;&amp;nbsp;cantidad&lt;/p&gt;&lt;p style=&quot;color: rgb(0 , 0 , 0) ; font-family: &amp;#34;helvetica&amp;#34; ; font-size: 12px ; font-style: normal ; letter-spacing: normal ; text-align: left ; text-indent: 0px ; text-transform: none ; word-spacing: 0px ; background-color: rgb(248 , 249 , 250) ; margin: 0px 0px 0px 4px&quot;&gt;+ costo_por_articulo&lt;/p&gt;&lt;p style=&quot;color: rgb(0 , 0 , 0) ; font-family: &amp;#34;helvetica&amp;#34; ; font-size: 12px ; font-style: normal ; letter-spacing: normal ; text-align: left ; text-indent: 0px ; text-transform: none ; word-spacing: 0px ; background-color: rgb(248 , 249 , 250) ; margin: 0px 0px 0px 4px&quot;&gt;+ costo_envio&lt;/p&gt;&lt;p style=&quot;color: rgb(0 , 0 , 0) ; font-family: &amp;#34;helvetica&amp;#34; ; font-size: 12px ; font-style: normal ; letter-spacing: normal ; text-align: left ; text-indent: 0px ; text-transform: none ; word-spacing: 0px ; background-color: rgb(248 , 249 , 250) ; margin: 0px 0px 0px 4px&quot;&gt;+ costo_total&lt;/p&gt;" style="text;whiteSpace=wrap;html=1;" vertex="1" parent="fnQmAsNqWZoXR3f6Luwj-7">
          <mxGeometry y="26" width="160" height="136" as="geometry" />
        </mxCell>
        <mxCell id="fnQmAsNqWZoXR3f6Luwj-17" value="" style="edgeStyle=entityRelationEdgeStyle;fontSize=12;html=1;endArrow=ERmandOne;startArrow=ERmandOne;strokeColor=#0000FF;strokeWidth=3;entryX=-0.005;entryY=-0.03;entryDx=0;entryDy=0;entryPerimeter=0;" edge="1" parent="1" source="78961159f06e98e8-44" target="g8U_BRg9vKX1-nAUUA79-7">
          <mxGeometry width="100" height="100" relative="1" as="geometry">
            <mxPoint x="560" y="270" as="sourcePoint" />
            <mxPoint x="660" y="170" as="targetPoint" />
          </mxGeometry>
        </mxCell>
        <mxCell id="fnQmAsNqWZoXR3f6Luwj-21" value="pertenece a" style="edgeLabel;html=1;align=center;verticalAlign=middle;resizable=0;points=[];" vertex="1" connectable="0" parent="fnQmAsNqWZoXR3f6Luwj-17">
          <mxGeometry x="0.0269" y="3" relative="1" as="geometry">
            <mxPoint as="offset" />
          </mxGeometry>
        </mxCell>
        <mxCell id="fnQmAsNqWZoXR3f6Luwj-18" value="" style="edgeStyle=entityRelationEdgeStyle;fontSize=12;html=1;endArrow=ERmandOne;startArrow=ERmandOne;strokeColor=#0000FF;strokeWidth=3;exitX=1;exitY=0.574;exitDx=0;exitDy=0;exitPerimeter=0;" edge="1" parent="1" source="fnQmAsNqWZoXR3f6Luwj-10" target="78961159f06e98e8-23">
          <mxGeometry width="100" height="100" relative="1" as="geometry">
            <mxPoint x="130" y="332.5" as="sourcePoint" />
            <mxPoint x="230" y="232.5" as="targetPoint" />
          </mxGeometry>
        </mxCell>
        <mxCell id="78961159f06e98e8-82" value="articulo-comentarios" style="swimlane;html=1;fontStyle=1;align=center;verticalAlign=top;childLayout=stackLayout;horizontal=1;startSize=26;horizontalStack=0;resizeParent=1;resizeLast=0;collapsible=1;marginBottom=0;swimlaneFillColor=#ffffff;rounded=0;shadow=0;comic=0;labelBackgroundColor=none;strokeWidth=1;fillColor=#fff2cc;fontFamily=Verdana;fontSize=12;strokeColor=#d6b656;gradientColor=#ffd966;" parent="1" vertex="1">
          <mxGeometry x="320" y="140" width="160" height="75" as="geometry" />
        </mxCell>
        <mxCell id="78961159f06e98e8-84" value="&lt;b&gt;+ id_usuario&lt;br&gt;+id_articulo&lt;/b&gt;" style="text;html=1;strokeColor=none;fillColor=none;align=left;verticalAlign=top;spacingLeft=4;spacingRight=4;whiteSpace=wrap;overflow=hidden;rotatable=0;points=[[0,0.5],[1,0.5]];portConstraint=eastwest;" parent="78961159f06e98e8-82" vertex="1">
          <mxGeometry y="26" width="160" height="44" as="geometry" />
        </mxCell>
        <mxCell id="78961159f06e98e8-43" value="articulo" style="swimlane;html=1;fontStyle=1;align=center;verticalAlign=top;childLayout=stackLayout;horizontal=1;startSize=26;horizontalStack=0;resizeParent=1;resizeLast=0;collapsible=1;marginBottom=0;swimlaneFillColor=#ffffff;rounded=0;shadow=0;comic=0;labelBackgroundColor=none;strokeWidth=1;fillColor=#ffcd28;fontFamily=Verdana;fontSize=12;strokeColor=#d79b00;gradientColor=#ffa500;" parent="1" vertex="1">
          <mxGeometry x="600" y="159.99999999999997" width="160" height="166" as="geometry" />
        </mxCell>
        <mxCell id="78961159f06e98e8-44" value="&lt;br&gt;+ id_articulo&lt;br&gt;+ id_categoria&lt;br&gt;+ id_puntuacion&lt;br&gt;+ id_comentarios&lt;br&gt;&lt;span style=&quot;font-weight: normal&quot;&gt;+ precio&lt;/span&gt;&lt;br&gt;&lt;span style=&quot;font-weight: normal&quot;&gt;+ moneda&lt;/span&gt;&lt;br&gt;&lt;span style=&quot;font-weight: normal&quot;&gt;+ imagen&lt;/span&gt;&lt;br&gt;&lt;span style=&quot;font-weight: normal&quot;&gt;+productos relacionados&lt;/span&gt;" style="text;html=1;strokeColor=none;fillColor=none;align=left;verticalAlign=top;spacingLeft=4;spacingRight=4;whiteSpace=wrap;overflow=hidden;rotatable=0;points=[[0,0.5],[1,0.5]];portConstraint=eastwest;fontStyle=1" parent="78961159f06e98e8-43" vertex="1">
          <mxGeometry y="26" width="160" height="140" as="geometry" />
        </mxCell>
        <mxCell id="235556782a83e6d0-1" value="envio" style="swimlane;html=1;fontStyle=1;align=center;verticalAlign=top;childLayout=stackLayout;horizontal=1;startSize=26;horizontalStack=0;resizeParent=1;resizeLast=0;collapsible=1;marginBottom=0;swimlaneFillColor=#ffffff;rounded=0;shadow=0;comic=0;labelBackgroundColor=none;strokeWidth=1;fillColor=#d5e8d4;fontFamily=Verdana;fontSize=12;strokeColor=#82b366;gradientColor=#97d077;" parent="1" vertex="1">
          <mxGeometry x="370" y="642" width="160" height="104" as="geometry" />
        </mxCell>
        <mxCell id="235556782a83e6d0-2" value="&lt;b&gt;+ id_tipoenvio&lt;br&gt;+ id_usuario&lt;/b&gt;&lt;br&gt;&lt;b&gt;+ id_direccion&lt;br&gt;+id_metodoPago&lt;br&gt;&lt;/b&gt;" style="text;html=1;strokeColor=none;fillColor=none;align=left;verticalAlign=top;spacingLeft=4;spacingRight=4;whiteSpace=wrap;overflow=hidden;rotatable=0;points=[[0,0.5],[1,0.5]];portConstraint=eastwest;" parent="235556782a83e6d0-1" vertex="1">
          <mxGeometry y="26" width="160" height="64" as="geometry" />
        </mxCell>
        <mxCell id="78961159f06e98e8-69" value="metodoPago" style="swimlane;html=1;fontStyle=1;align=center;verticalAlign=top;childLayout=stackLayout;horizontal=1;startSize=26;horizontalStack=0;resizeParent=1;resizeLast=0;collapsible=1;marginBottom=0;swimlaneFillColor=#ffffff;rounded=0;shadow=0;comic=0;labelBackgroundColor=none;strokeWidth=1;fillColor=#d5e8d4;fontFamily=Verdana;fontSize=12;strokeColor=#82b366;gradientColor=#97d077;" parent="1" vertex="1">
          <mxGeometry x="60" y="600" width="160" height="92" as="geometry" />
        </mxCell>
        <mxCell id="78961159f06e98e8-70" value="&lt;b&gt;+id_metodoPago&lt;br&gt;+ id_usuario&lt;br&gt;+id_tipoenvio&lt;br&gt;&lt;br&gt;&lt;/b&gt;" style="text;html=1;strokeColor=none;fillColor=none;align=left;verticalAlign=top;spacingLeft=4;spacingRight=4;whiteSpace=wrap;overflow=hidden;rotatable=0;points=[[0,0.5],[1,0.5]];portConstraint=eastwest;" parent="78961159f06e98e8-69" vertex="1">
          <mxGeometry y="26" width="160" height="54" as="geometry" />
        </mxCell>
        <mxCell id="fnQmAsNqWZoXR3f6Luwj-19" value="" style="edgeStyle=entityRelationEdgeStyle;fontSize=12;html=1;endArrow=ERmandOne;startArrow=ERmandOne;strokeColor=#0000FF;strokeWidth=3;exitX=1.013;exitY=0.005;exitDx=0;exitDy=0;exitPerimeter=0;" edge="1" parent="1" source="78961159f06e98e8-70">
          <mxGeometry width="100" height="100" relative="1" as="geometry">
            <mxPoint x="220" y="590" as="sourcePoint" />
            <mxPoint x="320" y="490" as="targetPoint" />
          </mxGeometry>
        </mxCell>
        <mxCell id="fnQmAsNqWZoXR3f6Luwj-20" value="" style="edgeStyle=entityRelationEdgeStyle;fontSize=12;html=1;endArrow=ERmandOne;startArrow=ERmandOne;strokeColor=#0000FF;strokeWidth=3;exitX=1;exitY=0.5;exitDx=0;exitDy=0;entryX=0;entryY=0.5;entryDx=0;entryDy=0;" edge="1" parent="1" source="78961159f06e98e8-70" target="235556782a83e6d0-2">
          <mxGeometry width="100" height="100" relative="1" as="geometry">
            <mxPoint x="209.99999999999994" y="666.27" as="sourcePoint" />
            <mxPoint x="307.92" y="530" as="targetPoint" />
          </mxGeometry>
        </mxCell>
        <mxCell id="fnQmAsNqWZoXR3f6Luwj-34" value="realiza" style="edgeLabel;html=1;align=center;verticalAlign=middle;resizable=0;points=[];" vertex="1" connectable="0" parent="fnQmAsNqWZoXR3f6Luwj-20">
          <mxGeometry x="-0.0852" y="-1" relative="1" as="geometry">
            <mxPoint as="offset" />
          </mxGeometry>
        </mxCell>
        <mxCell id="78961159f06e98e8-108" value="articulo-puntuacion" style="swimlane;html=1;fontStyle=1;align=center;verticalAlign=top;childLayout=stackLayout;horizontal=1;startSize=26;horizontalStack=0;resizeParent=1;resizeLast=0;collapsible=1;marginBottom=0;swimlaneFillColor=#ffffff;rounded=0;shadow=0;comic=0;labelBackgroundColor=none;strokeWidth=1;fillColor=#fff2cc;fontFamily=Verdana;fontSize=12;strokeColor=#d6b656;gradientColor=#ffd966;" parent="1" vertex="1">
          <mxGeometry x="320" y="240" width="160" height="78" as="geometry" />
        </mxCell>
        <mxCell id="g8U_BRg9vKX1-nAUUA79-5" value="&lt;b&gt;+ id_usuario&lt;br&gt;+ id_articulo&lt;/b&gt;" style="text;html=1;strokeColor=none;fillColor=none;align=left;verticalAlign=top;spacingLeft=4;spacingRight=4;whiteSpace=wrap;overflow=hidden;rotatable=0;points=[[0,0.5],[1,0.5]];portConstraint=eastwest;" parent="78961159f06e98e8-108" vertex="1">
          <mxGeometry y="26" width="160" height="44" as="geometry" />
        </mxCell>
        <mxCell id="g8U_BRg9vKX1-nAUUA79-6" value="categoria" style="swimlane;html=1;fontStyle=1;align=center;verticalAlign=top;childLayout=stackLayout;horizontal=1;startSize=26;horizontalStack=0;resizeParent=1;resizeLast=0;collapsible=1;marginBottom=0;swimlaneFillColor=#ffffff;rounded=0;shadow=0;comic=0;labelBackgroundColor=none;strokeWidth=1;fillColor=#fff2cc;fontFamily=Verdana;fontSize=12;strokeColor=#d6b656;gradientColor=#ffd966;" parent="1" vertex="1">
          <mxGeometry x="600" y="411" width="160" height="140" as="geometry" />
        </mxCell>
        <mxCell id="g8U_BRg9vKX1-nAUUA79-7" value="&lt;b&gt;+ id_categoria&lt;br&gt;+id_articulo&lt;br&gt;+ nombre&lt;/b&gt;&lt;br&gt;+descripcion&lt;br&gt;+ img" style="text;html=1;strokeColor=none;fillColor=none;align=left;verticalAlign=top;spacingLeft=4;spacingRight=4;whiteSpace=wrap;overflow=hidden;rotatable=0;points=[[0,0.5],[1,0.5]];portConstraint=eastwest;" parent="g8U_BRg9vKX1-nAUUA79-6" vertex="1">
          <mxGeometry y="26" width="160" height="114" as="geometry" />
        </mxCell>
        <mxCell id="fnQmAsNqWZoXR3f6Luwj-27" value="" style="endArrow=none;html=1;rounded=0;dashed=1;dashPattern=1 2;strokeColor=#0000FF;strokeWidth=3;exitX=1.01;exitY=0.391;exitDx=0;exitDy=0;entryX=-0.003;entryY=0.039;entryDx=0;entryDy=0;entryPerimeter=0;exitPerimeter=0;" edge="1" parent="1">
          <mxGeometry relative="1" as="geometry">
            <mxPoint x="201.5999999999999" y="195.30399999999997" as="sourcePoint" />
            <mxPoint x="319.52" y="260.716" as="targetPoint" />
            <Array as="points">
              <mxPoint x="290" y="243" />
            </Array>
          </mxGeometry>
        </mxCell>
        <mxCell id="fnQmAsNqWZoXR3f6Luwj-28" value="N" style="resizable=0;html=1;align=right;verticalAlign=bottom;" connectable="0" vertex="1" parent="fnQmAsNqWZoXR3f6Luwj-27">
          <mxGeometry x="1" relative="1" as="geometry" />
        </mxCell>
        <mxCell id="fnQmAsNqWZoXR3f6Luwj-25" value="" style="endArrow=none;html=1;rounded=0;dashed=1;dashPattern=1 2;strokeColor=#0000FF;strokeWidth=3;entryX=0.001;entryY=0.329;entryDx=0;entryDy=0;entryPerimeter=0;exitX=0.997;exitY=0.113;exitDx=0;exitDy=0;exitPerimeter=0;" edge="1" parent="1" source="78961159f06e98e8-23" target="78961159f06e98e8-84">
          <mxGeometry relative="1" as="geometry">
            <mxPoint x="482" y="120" as="sourcePoint" />
            <mxPoint x="600" y="202.5" as="targetPoint" />
            <Array as="points" />
          </mxGeometry>
        </mxCell>
        <mxCell id="fnQmAsNqWZoXR3f6Luwj-26" value="N" style="resizable=0;html=1;align=right;verticalAlign=bottom;" connectable="0" vertex="1" parent="fnQmAsNqWZoXR3f6Luwj-25">
          <mxGeometry x="1" relative="1" as="geometry" />
        </mxCell>
        <mxCell id="fnQmAsNqWZoXR3f6Luwj-29" value="" style="edgeStyle=entityRelationEdgeStyle;fontSize=12;html=1;endArrow=ERzeroToMany;startArrow=ERzeroToOne;strokeColor=#0000FF;strokeWidth=3;entryX=0.01;entryY=-0.008;entryDx=0;entryDy=0;entryPerimeter=0;exitX=1.019;exitY=0.262;exitDx=0;exitDy=0;exitPerimeter=0;" edge="1" parent="1" source="78961159f06e98e8-84" target="78961159f06e98e8-44">
          <mxGeometry width="100" height="100" relative="1" as="geometry">
            <mxPoint x="410" y="260" as="sourcePoint" />
            <mxPoint x="510" y="160" as="targetPoint" />
          </mxGeometry>
        </mxCell>
        <mxCell id="fnQmAsNqWZoXR3f6Luwj-31" value="tiene" style="edgeLabel;html=1;align=center;verticalAlign=middle;resizable=0;points=[];" vertex="1" connectable="0" parent="fnQmAsNqWZoXR3f6Luwj-29">
          <mxGeometry x="-0.1316" relative="1" as="geometry">
            <mxPoint as="offset" />
          </mxGeometry>
        </mxCell>
        <mxCell id="fnQmAsNqWZoXR3f6Luwj-30" value="" style="edgeStyle=entityRelationEdgeStyle;fontSize=12;html=1;endArrow=ERzeroToMany;startArrow=ERzeroToOne;strokeColor=#0000FF;strokeWidth=3;entryX=0.01;entryY=-0.008;entryDx=0;entryDy=0;entryPerimeter=0;" edge="1" parent="1" source="78961159f06e98e8-108">
          <mxGeometry width="100" height="100" relative="1" as="geometry">
            <mxPoint x="481.43999999999994" y="219.99800000000002" as="sourcePoint" />
            <mxPoint x="599.9999999999999" y="227.35" as="targetPoint" />
          </mxGeometry>
        </mxCell>
        <mxCell id="fnQmAsNqWZoXR3f6Luwj-32" value="tiene" style="edgeLabel;html=1;align=center;verticalAlign=middle;resizable=0;points=[];" vertex="1" connectable="0" parent="fnQmAsNqWZoXR3f6Luwj-30">
          <mxGeometry x="-0.0933" y="-4" relative="1" as="geometry">
            <mxPoint as="offset" />
          </mxGeometry>
        </mxCell>
      </root>
    </mxGraphModel>
  </diagram>
</mxfile>
